<mxfile host="app.diagrams.net" modified="2021-11-03T03:02:56.006Z" agent="5.0 (Windows NT 10.0; Win64; x64) AppleWebKit/537.36 (KHTML, like Gecko) Chrome/95.0.4638.54 Safari/537.36" etag="rBsuS3IETPtL3pAtdDJz" version="15.6.6" type="github">
  <diagram id="HOYFUunCbH7317G417ku" name="第 1 页">
    <mxGraphModel dx="2500" dy="908" grid="1" gridSize="10" guides="1" tooltips="1" connect="1" arrows="1" fold="1" page="1" pageScale="1" pageWidth="827" pageHeight="1169" math="0" shadow="0">
      <root>
        <mxCell id="0" />
        <mxCell id="1" parent="0" />
        <mxCell id="ZWeCtV3K1E8GW41HwPyf-4" value="" style="edgeStyle=orthogonalEdgeStyle;rounded=0;orthogonalLoop=1;jettySize=auto;html=1;fontColor=default;strokeColor=default;labelBackgroundColor=default;" edge="1" parent="1" source="ZWeCtV3K1E8GW41HwPyf-2" target="ZWeCtV3K1E8GW41HwPyf-3">
          <mxGeometry relative="1" as="geometry" />
        </mxCell>
        <mxCell id="ZWeCtV3K1E8GW41HwPyf-2" value="车辆驶入" style="rounded=1;whiteSpace=wrap;html=1;fontColor=default;strokeColor=default;fillColor=default;labelBackgroundColor=default;" vertex="1" parent="1">
          <mxGeometry x="-410" y="80" width="120" height="60" as="geometry" />
        </mxCell>
        <mxCell id="ZWeCtV3K1E8GW41HwPyf-6" value="" style="edgeStyle=orthogonalEdgeStyle;rounded=0;orthogonalLoop=1;jettySize=auto;html=1;fontColor=default;strokeColor=default;labelBackgroundColor=default;" edge="1" parent="1" source="ZWeCtV3K1E8GW41HwPyf-3" target="ZWeCtV3K1E8GW41HwPyf-5">
          <mxGeometry relative="1" as="geometry" />
        </mxCell>
        <mxCell id="ZWeCtV3K1E8GW41HwPyf-3" value="图像抓拍" style="whiteSpace=wrap;html=1;rounded=1;strokeColor=default;labelBackgroundColor=default;fontColor=default;" vertex="1" parent="1">
          <mxGeometry x="-410" y="170" width="120" height="60" as="geometry" />
        </mxCell>
        <mxCell id="ZWeCtV3K1E8GW41HwPyf-9" value="" style="edgeStyle=orthogonalEdgeStyle;rounded=0;orthogonalLoop=1;jettySize=auto;html=1;labelBackgroundColor=default;fontColor=default;strokeColor=default;" edge="1" parent="1" source="ZWeCtV3K1E8GW41HwPyf-5" target="ZWeCtV3K1E8GW41HwPyf-8">
          <mxGeometry relative="1" as="geometry" />
        </mxCell>
        <mxCell id="ZWeCtV3K1E8GW41HwPyf-13" value="" style="edgeStyle=orthogonalEdgeStyle;rounded=0;orthogonalLoop=1;jettySize=auto;html=1;labelBackgroundColor=default;fontColor=default;strokeColor=default;" edge="1" parent="1" source="ZWeCtV3K1E8GW41HwPyf-5" target="ZWeCtV3K1E8GW41HwPyf-12">
          <mxGeometry relative="1" as="geometry" />
        </mxCell>
        <mxCell id="ZWeCtV3K1E8GW41HwPyf-5" value="是否为固定停车" style="rhombus;whiteSpace=wrap;html=1;rounded=1;fillColor=default;strokeColor=default;fontColor=default;labelBackgroundColor=default;" vertex="1" parent="1">
          <mxGeometry x="-415" y="290" width="130" height="50" as="geometry" />
        </mxCell>
        <mxCell id="ZWeCtV3K1E8GW41HwPyf-11" value="" style="edgeStyle=orthogonalEdgeStyle;rounded=0;orthogonalLoop=1;jettySize=auto;html=1;labelBackgroundColor=default;fontColor=default;strokeColor=default;" edge="1" parent="1" source="ZWeCtV3K1E8GW41HwPyf-8" target="ZWeCtV3K1E8GW41HwPyf-10">
          <mxGeometry relative="1" as="geometry" />
        </mxCell>
        <mxCell id="ZWeCtV3K1E8GW41HwPyf-8" value="信息入库" style="whiteSpace=wrap;html=1;rounded=1;fillColor=default;strokeColor=default;fontColor=default;labelBackgroundColor=default;" vertex="1" parent="1">
          <mxGeometry x="-620" y="285" width="120" height="60" as="geometry" />
        </mxCell>
        <mxCell id="ZWeCtV3K1E8GW41HwPyf-20" style="edgeStyle=orthogonalEdgeStyle;rounded=0;orthogonalLoop=1;jettySize=auto;html=1;exitX=0.5;exitY=1;exitDx=0;exitDy=0;entryX=0;entryY=0.5;entryDx=0;entryDy=0;labelBackgroundColor=default;fontColor=default;strokeColor=default;" edge="1" parent="1" source="ZWeCtV3K1E8GW41HwPyf-10" target="ZWeCtV3K1E8GW41HwPyf-18">
          <mxGeometry relative="1" as="geometry" />
        </mxCell>
        <mxCell id="ZWeCtV3K1E8GW41HwPyf-10" value="控制开闸" style="whiteSpace=wrap;html=1;rounded=1;strokeColor=default;labelBackgroundColor=default;fontColor=default;" vertex="1" parent="1">
          <mxGeometry x="-620" y="390" width="120" height="60" as="geometry" />
        </mxCell>
        <mxCell id="ZWeCtV3K1E8GW41HwPyf-15" value="" style="edgeStyle=orthogonalEdgeStyle;rounded=0;orthogonalLoop=1;jettySize=auto;html=1;labelBackgroundColor=default;fontColor=default;strokeColor=default;" edge="1" parent="1" source="ZWeCtV3K1E8GW41HwPyf-12" target="ZWeCtV3K1E8GW41HwPyf-14">
          <mxGeometry relative="1" as="geometry" />
        </mxCell>
        <mxCell id="ZWeCtV3K1E8GW41HwPyf-12" value="判断是否为临时车" style="whiteSpace=wrap;html=1;rounded=1;fillColor=default;strokeColor=default;fontColor=default;labelBackgroundColor=default;" vertex="1" parent="1">
          <mxGeometry x="-200" y="285" width="120" height="60" as="geometry" />
        </mxCell>
        <mxCell id="ZWeCtV3K1E8GW41HwPyf-17" value="" style="edgeStyle=orthogonalEdgeStyle;rounded=0;orthogonalLoop=1;jettySize=auto;html=1;labelBackgroundColor=default;fontColor=default;strokeColor=default;" edge="1" parent="1" source="ZWeCtV3K1E8GW41HwPyf-14" target="ZWeCtV3K1E8GW41HwPyf-16">
          <mxGeometry relative="1" as="geometry" />
        </mxCell>
        <mxCell id="ZWeCtV3K1E8GW41HwPyf-14" value="信息入库" style="whiteSpace=wrap;html=1;rounded=1;fillColor=default;strokeColor=default;fontColor=default;labelBackgroundColor=default;" vertex="1" parent="1">
          <mxGeometry x="-200" y="390" width="120" height="60" as="geometry" />
        </mxCell>
        <mxCell id="ZWeCtV3K1E8GW41HwPyf-19" value="" style="edgeStyle=orthogonalEdgeStyle;rounded=0;orthogonalLoop=1;jettySize=auto;html=1;labelBackgroundColor=default;fontColor=default;strokeColor=default;" edge="1" parent="1" source="ZWeCtV3K1E8GW41HwPyf-16" target="ZWeCtV3K1E8GW41HwPyf-18">
          <mxGeometry relative="1" as="geometry" />
        </mxCell>
        <mxCell id="ZWeCtV3K1E8GW41HwPyf-16" value="控制开闸" style="whiteSpace=wrap;html=1;rounded=1;fillColor=default;strokeColor=default;fontColor=default;labelBackgroundColor=default;" vertex="1" parent="1">
          <mxGeometry x="-200" y="500" width="120" height="60" as="geometry" />
        </mxCell>
        <mxCell id="ZWeCtV3K1E8GW41HwPyf-18" value="车辆入场" style="whiteSpace=wrap;html=1;rounded=1;strokeColor=default;labelBackgroundColor=default;fontColor=default;" vertex="1" parent="1">
          <mxGeometry x="-400" y="500" width="120" height="60" as="geometry" />
        </mxCell>
        <mxCell id="ZWeCtV3K1E8GW41HwPyf-21" value="是" style="text;html=1;align=center;verticalAlign=middle;resizable=0;points=[];autosize=1;strokeColor=default;fillColor=none;fontColor=default;labelBackgroundColor=default;" vertex="1" parent="1">
          <mxGeometry x="-470" y="290" width="30" height="20" as="geometry" />
        </mxCell>
        <mxCell id="ZWeCtV3K1E8GW41HwPyf-22" value="否" style="text;html=1;align=center;verticalAlign=middle;resizable=0;points=[];autosize=1;strokeColor=default;fillColor=none;fontColor=default;labelBackgroundColor=default;" vertex="1" parent="1">
          <mxGeometry x="-270" y="290" width="30" height="20" as="geometry" />
        </mxCell>
        <mxCell id="ZWeCtV3K1E8GW41HwPyf-23" value="软件设别" style="text;html=1;align=center;verticalAlign=middle;resizable=0;points=[];autosize=1;strokeColor=default;fillColor=none;fontColor=default;labelBackgroundColor=default;" vertex="1" parent="1">
          <mxGeometry x="-345" y="250" width="60" height="20" as="geometry" />
        </mxCell>
        <mxCell id="ZWeCtV3K1E8GW41HwPyf-24" value="入场流程" style="text;html=1;align=center;verticalAlign=middle;resizable=0;points=[];autosize=1;strokeColor=default;fillColor=none;fontColor=default;labelBackgroundColor=default;" vertex="1" parent="1">
          <mxGeometry x="-390" y="30" width="60" height="20" as="geometry" />
        </mxCell>
        <mxCell id="ZWeCtV3K1E8GW41HwPyf-25" value="" style="edgeStyle=orthogonalEdgeStyle;rounded=0;orthogonalLoop=1;jettySize=auto;html=1;fontColor=default;strokeColor=default;labelBackgroundColor=default;" edge="1" parent="1" source="ZWeCtV3K1E8GW41HwPyf-26" target="ZWeCtV3K1E8GW41HwPyf-28">
          <mxGeometry relative="1" as="geometry" />
        </mxCell>
        <mxCell id="ZWeCtV3K1E8GW41HwPyf-26" value="车辆驶入" style="rounded=1;whiteSpace=wrap;html=1;fontColor=default;strokeColor=default;fillColor=default;labelBackgroundColor=default;" vertex="1" parent="1">
          <mxGeometry x="270" y="70" width="120" height="60" as="geometry" />
        </mxCell>
        <mxCell id="ZWeCtV3K1E8GW41HwPyf-27" value="" style="edgeStyle=orthogonalEdgeStyle;rounded=0;orthogonalLoop=1;jettySize=auto;html=1;fontColor=default;strokeColor=default;labelBackgroundColor=default;" edge="1" parent="1" source="ZWeCtV3K1E8GW41HwPyf-28" target="ZWeCtV3K1E8GW41HwPyf-31">
          <mxGeometry relative="1" as="geometry" />
        </mxCell>
        <mxCell id="ZWeCtV3K1E8GW41HwPyf-28" value="图像抓拍" style="whiteSpace=wrap;html=1;rounded=1;strokeColor=default;labelBackgroundColor=default;fontColor=default;" vertex="1" parent="1">
          <mxGeometry x="270" y="160" width="120" height="60" as="geometry" />
        </mxCell>
        <mxCell id="ZWeCtV3K1E8GW41HwPyf-29" value="" style="edgeStyle=orthogonalEdgeStyle;rounded=0;orthogonalLoop=1;jettySize=auto;html=1;labelBackgroundColor=default;fontColor=default;strokeColor=default;" edge="1" parent="1" source="ZWeCtV3K1E8GW41HwPyf-31" target="ZWeCtV3K1E8GW41HwPyf-33">
          <mxGeometry relative="1" as="geometry" />
        </mxCell>
        <mxCell id="ZWeCtV3K1E8GW41HwPyf-48" value="" style="edgeStyle=orthogonalEdgeStyle;rounded=0;orthogonalLoop=1;jettySize=auto;html=1;labelBackgroundColor=default;fontColor=default;strokeColor=default;" edge="1" parent="1" source="ZWeCtV3K1E8GW41HwPyf-31" target="ZWeCtV3K1E8GW41HwPyf-47">
          <mxGeometry relative="1" as="geometry" />
        </mxCell>
        <mxCell id="ZWeCtV3K1E8GW41HwPyf-31" value="是否为临时车" style="rhombus;whiteSpace=wrap;html=1;rounded=1;fillColor=default;strokeColor=default;fontColor=default;labelBackgroundColor=default;" vertex="1" parent="1">
          <mxGeometry x="265" y="280" width="130" height="50" as="geometry" />
        </mxCell>
        <mxCell id="ZWeCtV3K1E8GW41HwPyf-32" value="" style="edgeStyle=orthogonalEdgeStyle;rounded=0;orthogonalLoop=1;jettySize=auto;html=1;labelBackgroundColor=default;fontColor=default;strokeColor=default;" edge="1" parent="1" source="ZWeCtV3K1E8GW41HwPyf-33" target="ZWeCtV3K1E8GW41HwPyf-35">
          <mxGeometry relative="1" as="geometry" />
        </mxCell>
        <mxCell id="ZWeCtV3K1E8GW41HwPyf-33" value="自动计算与播报应缴金额" style="whiteSpace=wrap;html=1;rounded=1;fillColor=default;strokeColor=default;fontColor=default;labelBackgroundColor=default;" vertex="1" parent="1">
          <mxGeometry x="60" y="275" width="120" height="60" as="geometry" />
        </mxCell>
        <mxCell id="ZWeCtV3K1E8GW41HwPyf-34" style="edgeStyle=orthogonalEdgeStyle;rounded=0;orthogonalLoop=1;jettySize=auto;html=1;exitX=0.5;exitY=1;exitDx=0;exitDy=0;entryX=0;entryY=0.5;entryDx=0;entryDy=0;labelBackgroundColor=default;fontColor=default;strokeColor=default;" edge="1" parent="1" source="ZWeCtV3K1E8GW41HwPyf-35" target="ZWeCtV3K1E8GW41HwPyf-42">
          <mxGeometry relative="1" as="geometry" />
        </mxCell>
        <mxCell id="ZWeCtV3K1E8GW41HwPyf-35" value="管理员收费" style="whiteSpace=wrap;html=1;rounded=1;strokeColor=default;labelBackgroundColor=default;fontColor=default;" vertex="1" parent="1">
          <mxGeometry x="60" y="380" width="120" height="60" as="geometry" />
        </mxCell>
        <mxCell id="ZWeCtV3K1E8GW41HwPyf-38" value="" style="edgeStyle=orthogonalEdgeStyle;rounded=0;orthogonalLoop=1;jettySize=auto;html=1;labelBackgroundColor=default;fontColor=default;strokeColor=default;" edge="1" parent="1" source="ZWeCtV3K1E8GW41HwPyf-39" target="ZWeCtV3K1E8GW41HwPyf-41">
          <mxGeometry relative="1" as="geometry" />
        </mxCell>
        <mxCell id="ZWeCtV3K1E8GW41HwPyf-39" value="判断为储值车" style="whiteSpace=wrap;html=1;rounded=1;fillColor=default;strokeColor=default;fontColor=default;labelBackgroundColor=default;" vertex="1" parent="1">
          <mxGeometry x="480" y="355" width="120" height="60" as="geometry" />
        </mxCell>
        <mxCell id="ZWeCtV3K1E8GW41HwPyf-52" style="edgeStyle=orthogonalEdgeStyle;rounded=0;orthogonalLoop=1;jettySize=auto;html=1;entryX=1;entryY=0.5;entryDx=0;entryDy=0;labelBackgroundColor=default;fontColor=default;strokeColor=default;" edge="1" parent="1" source="ZWeCtV3K1E8GW41HwPyf-41" target="ZWeCtV3K1E8GW41HwPyf-42">
          <mxGeometry relative="1" as="geometry">
            <Array as="points">
              <mxPoint x="540" y="565" />
            </Array>
          </mxGeometry>
        </mxCell>
        <mxCell id="ZWeCtV3K1E8GW41HwPyf-41" value="自动扣费饼播报剩余金额" style="whiteSpace=wrap;html=1;rounded=1;fillColor=default;strokeColor=default;fontColor=default;labelBackgroundColor=default;" vertex="1" parent="1">
          <mxGeometry x="480" y="460" width="120" height="60" as="geometry" />
        </mxCell>
        <mxCell id="ZWeCtV3K1E8GW41HwPyf-42" value="车辆出场" style="whiteSpace=wrap;html=1;rounded=1;strokeColor=default;labelBackgroundColor=default;fontColor=default;fillColor=default;" vertex="1" parent="1">
          <mxGeometry x="270" y="535" width="120" height="60" as="geometry" />
        </mxCell>
        <mxCell id="ZWeCtV3K1E8GW41HwPyf-43" value="是" style="text;html=1;align=center;verticalAlign=middle;resizable=0;points=[];autosize=1;strokeColor=default;fillColor=none;fontColor=default;labelBackgroundColor=default;" vertex="1" parent="1">
          <mxGeometry x="210" y="280" width="30" height="20" as="geometry" />
        </mxCell>
        <mxCell id="ZWeCtV3K1E8GW41HwPyf-45" value="软件设别" style="text;html=1;align=center;verticalAlign=middle;resizable=0;points=[];autosize=1;strokeColor=default;fillColor=none;fontColor=default;labelBackgroundColor=default;" vertex="1" parent="1">
          <mxGeometry x="335" y="240" width="60" height="20" as="geometry" />
        </mxCell>
        <mxCell id="ZWeCtV3K1E8GW41HwPyf-46" value="出场流程" style="text;html=1;align=center;verticalAlign=middle;resizable=0;points=[];autosize=1;strokeColor=default;fillColor=none;fontColor=default;labelBackgroundColor=default;" vertex="1" parent="1">
          <mxGeometry x="290" y="20" width="60" height="20" as="geometry" />
        </mxCell>
        <mxCell id="ZWeCtV3K1E8GW41HwPyf-50" style="edgeStyle=orthogonalEdgeStyle;rounded=0;orthogonalLoop=1;jettySize=auto;html=1;exitX=1;exitY=0.5;exitDx=0;exitDy=0;labelBackgroundColor=default;fontColor=default;strokeColor=default;" edge="1" parent="1" source="ZWeCtV3K1E8GW41HwPyf-47" target="ZWeCtV3K1E8GW41HwPyf-39">
          <mxGeometry relative="1" as="geometry" />
        </mxCell>
        <mxCell id="ZWeCtV3K1E8GW41HwPyf-54" value="" style="edgeStyle=orthogonalEdgeStyle;rounded=0;orthogonalLoop=1;jettySize=auto;html=1;labelBackgroundColor=default;fontColor=default;strokeColor=default;" edge="1" parent="1" source="ZWeCtV3K1E8GW41HwPyf-47" target="ZWeCtV3K1E8GW41HwPyf-53">
          <mxGeometry relative="1" as="geometry" />
        </mxCell>
        <mxCell id="ZWeCtV3K1E8GW41HwPyf-47" value="是否为储值车" style="rhombus;whiteSpace=wrap;html=1;rounded=1;fillColor=default;strokeColor=default;fontColor=default;labelBackgroundColor=default;" vertex="1" parent="1">
          <mxGeometry x="265" y="360" width="130" height="50" as="geometry" />
        </mxCell>
        <mxCell id="ZWeCtV3K1E8GW41HwPyf-49" value="否" style="text;html=1;align=center;verticalAlign=middle;resizable=0;points=[];autosize=1;strokeColor=default;fillColor=none;fontColor=default;labelBackgroundColor=default;" vertex="1" parent="1">
          <mxGeometry x="335" y="335" width="30" height="20" as="geometry" />
        </mxCell>
        <mxCell id="ZWeCtV3K1E8GW41HwPyf-51" value="是" style="text;html=1;align=center;verticalAlign=middle;resizable=0;points=[];autosize=1;strokeColor=default;fillColor=none;fontColor=default;labelBackgroundColor=default;" vertex="1" parent="1">
          <mxGeometry x="415" y="360" width="30" height="20" as="geometry" />
        </mxCell>
        <mxCell id="ZWeCtV3K1E8GW41HwPyf-56" style="edgeStyle=orthogonalEdgeStyle;rounded=0;orthogonalLoop=1;jettySize=auto;html=1;exitX=0.5;exitY=1;exitDx=0;exitDy=0;entryX=0.5;entryY=0;entryDx=0;entryDy=0;labelBackgroundColor=default;fontColor=default;strokeColor=default;" edge="1" parent="1" source="ZWeCtV3K1E8GW41HwPyf-53" target="ZWeCtV3K1E8GW41HwPyf-42">
          <mxGeometry relative="1" as="geometry" />
        </mxCell>
        <mxCell id="ZWeCtV3K1E8GW41HwPyf-53" value="判断为月租车/免费车" style="whiteSpace=wrap;html=1;rounded=1;labelBackgroundColor=default;fillColor=default;strokeColor=default;fontColor=default;" vertex="1" parent="1">
          <mxGeometry x="270" y="440" width="120" height="60" as="geometry" />
        </mxCell>
        <mxCell id="ZWeCtV3K1E8GW41HwPyf-55" value="否" style="text;html=1;align=center;verticalAlign=middle;resizable=0;points=[];autosize=1;strokeColor=default;fillColor=none;fontColor=default;labelBackgroundColor=default;" vertex="1" parent="1">
          <mxGeometry x="335" y="410" width="30" height="20" as="geometry" />
        </mxCell>
        <mxCell id="ZWeCtV3K1E8GW41HwPyf-57" value="&lt;span style=&quot;font-size: 14px;&quot;&gt;车辆进场&lt;/span&gt;&lt;br style=&quot;box-sizing: border-box; font-size: 14px;&quot;&gt;&lt;span style=&quot;font-size: 14px;&quot;&gt;—-&amp;gt;车牌被摄像头拍摄到，摄像头识别出车牌&lt;/span&gt;&lt;br style=&quot;box-sizing: border-box; font-size: 14px;&quot;&gt;&lt;span style=&quot;font-size: 14px;&quot;&gt;—-&amp;gt;向云端服务器发送数据(例如车牌号，进场时间，哪个停车场，哪个入口等数据)&lt;/span&gt;&lt;br style=&quot;box-sizing: border-box; font-size: 14px;&quot;&gt;&lt;span style=&quot;font-size: 14px;&quot;&gt;—-&amp;gt;云端服务器接收到数据，记录到数据库&lt;/span&gt;&lt;br style=&quot;box-sizing: border-box; font-size: 14px;&quot;&gt;&lt;span style=&quot;font-size: 14px;&quot;&gt;—-&amp;gt;车辆在停车场内停了2个小时(假设停车费5元/小时)&lt;/span&gt;&lt;br style=&quot;box-sizing: border-box; font-size: 14px;&quot;&gt;&lt;span style=&quot;font-size: 14px;&quot;&gt;—-&amp;gt;车主办完事了，准备离开停车场，在手机上搜索自己车牌并支付相应停车费&lt;/span&gt;&lt;br style=&quot;box-sizing: border-box; font-size: 14px;&quot;&gt;&lt;span style=&quot;font-size: 14px;&quot;&gt;—-&amp;gt;车辆出场，到停车场门口时车牌再次没摄像头拍摄到摄像头识别出车牌&lt;/span&gt;&lt;br style=&quot;box-sizing: border-box; font-size: 14px;&quot;&gt;&lt;span style=&quot;font-size: 14px;&quot;&gt;—-&amp;gt;向云端服务器发送数据(例如车牌号，进场时间，哪个停车场，哪个入口等数据)&lt;/span&gt;&lt;br style=&quot;box-sizing: border-box; font-size: 14px;&quot;&gt;&lt;span style=&quot;font-size: 14px;&quot;&gt;—-&amp;gt;云端服务器接收到数据，记录到数据库，根据现有数据判断该车辆是否已经付费&lt;/span&gt;&lt;br style=&quot;box-sizing: border-box; font-size: 14px;&quot;&gt;&lt;span style=&quot;font-size: 14px;&quot;&gt;—-&amp;gt;车辆已经付费，匝道自动开启，整个过程很流畅，不需要停车&lt;/span&gt;" style="whiteSpace=wrap;html=1;labelBackgroundColor=default;fontColor=default;strokeColor=default;fillColor=default;align=left;" vertex="1" parent="1">
          <mxGeometry x="-720" y="630" width="720" height="200" as="geometry" />
        </mxCell>
      </root>
    </mxGraphModel>
  </diagram>
</mxfile>
